<?xml version="1.0" encoding="UTF-8" ?>
<!DOCTYPE svg PUBLIC "-//W3C//DTD SVG 1.1//EN" "http://www.w3.org/Graphics/SVG/1.1/DTD/svg11.dtd">
<svg width="442pt" height="580pt" viewBox="0 0 442 580" version="1.1" xmlns="http://www.w3.org/2000/svg">
<g id="#f4f4f4ff">
</g>
<g id="#f0f0eeff">
</g>
<g id="#030303ff">
<path fill="#030303" opacity="1.00" d=" M 187.14 16.02 C 193.97 11.74 202.34 13.06 209.98 12.85 C 213.96 13.05 218.23 12.15 221.96 13.91 C 223.87 15.72 223.08 18.31 222.40 20.47 C 213.60 22.37 204.51 20.44 195.64 21.59 C 188.64 22.74 183.69 30.11 185.28 37.04 C 186.29 43.01 192.03 47.62 198.06 47.57 C 218.39 47.67 238.73 47.57 259.06 47.61 C 263.24 47.67 267.44 47.35 271.60 47.87 C 279.19 49.32 285.80 54.96 288.38 62.26 C 290.23 67.94 289.57 74.30 286.68 79.51 C 282.96 86.12 275.57 90.45 267.98 90.45 C 236.65 90.49 205.31 90.41 173.98 90.48 C 168.16 90.49 162.42 94.51 161.11 100.32 C 159.01 107.31 164.11 115.11 171.15 116.47 C 174.73 117.04 178.37 116.74 181.98 116.78 C 218.31 116.75 254.65 116.80 290.99 116.75 C 297.10 116.66 303.43 118.77 307.64 123.34 C 313.71 129.16 315.43 138.74 312.18 146.43 C 309.04 154.49 300.52 159.71 291.98 159.61 C 239.01 159.60 186.04 159.56 133.07 159.63 C 127.24 159.56 121.61 163.65 120.12 169.31 C 117.89 176.33 123.05 184.41 130.22 185.69 C 134.45 186.37 138.74 186.01 143.00 186.03 C 199.65 185.85 256.30 186.03 312.96 185.89 C 325.48 185.21 338.00 192.78 342.69 204.49 C 345.20 210.20 345.17 216.58 345.11 222.71 C 358.15 224.19 370.53 230.94 378.33 241.57 C 386.61 252.31 389.56 266.83 386.40 279.99 C 383.32 293.72 373.52 305.67 360.81 311.62 C 359.39 312.22 357.52 312.91 356.13 311.89 C 354.23 310.98 354.36 308.60 353.82 306.88 C 355.45 305.40 357.27 304.14 359.22 303.11 C 367.60 298.66 374.19 290.93 377.22 281.93 C 381.53 270.16 379.32 256.29 371.60 246.42 C 365.44 237.85 355.48 232.53 345.14 231.00 C 344.97 251.34 345.28 271.68 344.99 292.01 C 344.50 318.60 336.17 345.03 321.08 366.96 C 306.79 387.73 286.62 404.46 263.45 414.44 C 237.96 425.52 209.03 428.31 181.84 422.66 C 156.03 417.43 132.08 404.12 113.52 385.50 C 92.26 363.96 78.50 335.18 75.25 305.08 C 73.92 295.09 74.41 285.00 74.32 274.95 C 74.36 261.40 74.24 247.84 74.35 234.29 C 74.22 228.07 79.79 222.56 85.98 222.61 C 169.58 222.61 253.19 222.59 336.79 222.62 C 336.69 218.13 337.13 213.48 335.60 209.17 C 333.17 201.85 326.67 196.05 319.08 194.63 C 315.42 194.05 311.72 194.31 308.04 194.27 C 251.69 194.28 195.34 194.24 138.99 194.28 C 135.23 194.24 131.40 194.52 127.71 193.60 C 120.35 191.94 114.24 185.93 112.20 178.70 C 110.32 172.29 111.68 165.01 115.80 159.74 C 119.72 154.41 126.33 151.37 132.90 151.35 C 185.93 151.31 238.97 151.37 292.00 151.32 C 298.19 151.59 304.02 147.06 305.23 140.99 C 307.27 133.07 300.16 124.62 292.03 125.15 C 253.04 125.12 214.04 125.16 175.05 125.13 C 168.48 125.28 161.94 122.61 157.57 117.67 C 152.14 111.34 150.81 101.87 154.51 94.36 C 157.89 86.91 165.86 81.97 174.03 82.19 C 205.03 82.20 236.02 82.20 267.02 82.20 C 272.21 82.31 277.53 79.63 279.71 74.76 C 282.94 69.08 280.47 61.45 275.12 58.02 C 272.15 56.02 268.45 55.72 264.97 55.73 C 242.64 55.78 220.30 55.73 197.97 55.76 C 191.78 55.87 185.75 52.90 181.77 48.22 C 177.76 43.67 176.25 37.39 176.71 31.43 C 178.06 25.21 181.46 19.22 187.14 16.02 M 82.58 238.02 C 82.56 254.65 82.58 271.29 82.56 287.92 C 82.48 294.61 82.92 301.33 84.07 307.92 C 89.82 349.94 118.44 387.75 156.86 405.48 C 177.97 415.40 201.95 419.29 225.09 416.28 C 247.97 413.60 270.00 404.35 288.06 390.06 C 308.35 374.18 323.67 352.01 331.18 327.34 C 335.09 314.63 336.97 301.29 336.74 288.00 C 336.73 268.92 336.74 249.85 336.73 230.77 C 254.46 230.76 172.18 230.76 89.91 230.77 C 86.10 230.72 82.21 234.03 82.58 238.02 Z" />
<path fill="#030303" opacity="1.00" d=" M 319.31 521.65 C 319.51 505.00 319.34 488.36 319.42 471.71 C 332.43 471.78 345.45 471.78 358.46 471.73 C 358.49 474.03 358.51 476.35 358.55 478.66 C 348.14 478.93 337.73 478.70 327.32 478.78 C 327.32 484.39 327.30 490.00 327.35 495.61 C 336.63 495.60 345.91 495.62 355.19 495.61 C 355.19 497.87 355.20 500.13 355.20 502.40 C 345.92 502.39 336.64 502.38 327.36 502.40 C 327.29 508.33 327.29 514.27 327.40 520.22 C 338.12 520.18 348.85 520.17 359.58 520.22 C 359.54 522.55 359.52 524.88 359.49 527.21 C 346.14 527.15 332.80 527.19 319.46 527.18 C 319.42 525.33 319.38 523.49 319.31 521.65 Z" />
<path fill="#030303" opacity="1.00" d=" M 393.51 527.18 C 393.45 508.70 393.47 490.22 393.50 471.74 C 406.52 471.76 419.54 471.79 432.57 471.71 C 432.57 474.07 432.58 476.42 432.58 478.78 C 422.23 478.76 411.88 478.78 401.53 478.76 C 401.37 484.37 401.46 489.98 401.42 495.59 C 410.71 495.65 419.99 495.55 429.27 495.59 C 429.24 497.86 429.24 500.14 429.24 502.42 C 419.98 502.39 410.71 502.43 401.44 502.41 C 401.44 508.33 401.39 514.26 401.47 520.19 C 412.19 520.11 422.91 520.26 433.62 520.11 C 433.60 522.48 433.62 524.86 433.63 527.24 C 420.26 527.12 406.88 527.23 393.51 527.18 Z" />
<path fill="#030303" opacity="1.00" d=" M 123.81 546.45 C 127.28 546.41 130.76 546.18 134.22 546.39 C 134.42 546.71 134.83 547.36 135.04 547.68 C 131.89 547.91 128.73 547.89 125.58 547.88 C 125.59 549.67 125.60 551.47 125.61 553.28 C 128.29 553.22 130.96 553.20 133.64 553.23 C 133.64 553.60 133.66 554.36 133.66 554.74 C 130.98 554.76 128.31 554.77 125.63 554.78 C 125.62 556.68 125.60 558.58 125.58 560.49 C 128.59 560.46 131.61 560.47 134.62 560.37 L 134.78 562.10 C 131.11 562.10 127.45 562.04 123.79 562.06 C 123.85 556.85 123.94 551.65 123.81 546.45 Z" />
<path fill="#030303" opacity="1.00" d=" M 144.59 547.12 C 144.56 545.34 146.54 547.00 146.85 547.70 C 148.73 551.07 150.68 554.40 152.61 557.75 C 155.13 553.68 156.93 549.07 160.39 545.66 C 160.83 550.90 160.56 556.16 160.70 561.41 C 160.35 561.72 159.64 562.33 159.28 562.64 C 158.80 558.42 158.86 554.17 159.08 549.94 C 156.84 553.37 154.80 556.92 152.74 560.46 C 150.26 557.05 148.18 553.38 146.17 549.69 C 145.90 554.13 147.12 558.92 144.99 563.06 C 144.12 557.80 144.50 552.42 144.59 547.12 Z" />
<path fill="#030303" opacity="1.00" d=" M 183.65 546.44 C 184.10 546.42 185.01 546.38 185.46 546.36 C 185.62 550.19 184.95 554.15 185.94 557.90 C 187.25 561.78 194.44 561.23 194.62 556.93 C 195.02 553.43 194.73 549.91 194.76 546.41 L 196.58 546.40 C 196.36 550.15 196.83 553.96 196.28 557.69 C 195.11 563.09 186.49 563.82 184.36 558.81 C 183.05 554.83 183.98 550.55 183.65 546.44 Z" />
<path fill="#030303" opacity="1.00" d=" M 356.27 546.60 C 356.93 546.47 357.59 546.34 358.26 546.22 C 359.80 549.24 361.67 552.07 363.53 554.90 C 365.89 552.10 366.61 547.11 370.54 546.08 C 368.84 549.70 366.17 552.77 364.57 556.43 C 364.20 558.58 364.26 560.77 364.01 562.95 C 363.01 561.87 362.57 560.51 362.56 559.07 C 362.41 554.69 359.08 551.40 357.04 547.77 C 356.84 547.48 356.46 546.90 356.27 546.60 Z" />
</g>
<g id="#f6f8f7ff">
</g>
<g id="#f9fbfaff">
</g>
<g id="#fdfefdff">
</g>
<g id="#040404ff">
<path fill="#040404" opacity="1.00" d=" M 100.73 272.98 C 115.25 262.91 133.34 257.33 151.04 259.84 C 170.45 262.45 187.70 273.19 202.15 285.93 C 215.53 280.15 229.38 275.00 243.93 273.27 C 257.96 271.38 272.59 272.65 285.73 278.11 C 300.47 284.08 312.91 295.23 321.02 308.85 C 322.18 310.98 323.79 313.31 323.06 315.86 C 321.34 323.83 318.53 331.54 315.23 338.98 C 304.81 361.20 287.41 380.14 265.87 391.98 C 244.79 403.68 219.98 408.48 196.05 405.59 C 172.96 403.03 150.79 393.17 133.34 377.85 C 110.34 358.04 95.75 328.90 93.70 298.61 C 93.44 294.39 93.33 290.15 93.49 285.92 C 93.61 280.75 96.53 275.90 100.73 272.98 M 107.63 278.33 C 104.63 279.81 102.19 282.53 101.79 285.95 C 101.32 293.66 102.16 301.41 103.36 309.03 C 108.20 337.68 125.47 363.83 149.63 379.90 C 165.92 390.91 185.29 397.18 204.92 398.06 C 228.42 399.05 252.30 392.29 271.51 378.64 C 291.24 364.89 306.13 344.37 313.08 321.35 C 297.62 326.45 280.93 327.62 264.93 324.57 C 240.08 320.01 217.09 307.99 197.28 292.57 C 184.26 281.26 169.20 271.24 151.88 268.39 C 136.52 265.45 120.64 270.12 107.63 278.33 M 210.01 291.70 C 223.49 300.96 238.17 308.67 253.89 313.38 C 273.11 319.35 294.45 319.83 313.34 312.33 C 303.93 296.84 287.99 285.34 270.09 282.05 C 249.66 278.07 228.72 283.52 210.01 291.70 Z" />
<path fill="#040404" opacity="1.00" d=" M 12.13 482.05 C 22.45 468.54 45.25 467.23 56.85 479.74 C 55.45 481.14 54.04 482.53 52.63 483.93 C 52.40 484.16 51.93 484.63 51.69 484.86 C 48.08 481.70 43.85 478.85 38.92 478.47 C 31.80 477.52 24.22 479.96 19.45 485.44 C 13.31 492.44 12.71 503.50 17.75 511.26 C 23.32 519.90 35.45 522.97 44.70 518.82 C 47.32 517.68 49.52 515.82 51.70 514.00 C 53.45 515.74 55.21 517.46 56.99 519.16 C 47.42 529.12 31.09 530.31 19.42 523.48 C 13.24 519.62 8.72 513.38 7.05 506.27 C 5.31 497.98 6.71 488.75 12.13 482.05 Z" />
<path fill="#040404" opacity="1.00" d=" M 92.54 479.67 C 103.76 468.29 124.18 468.31 135.50 479.53 C 146.25 490.09 146.13 509.57 135.02 519.84 C 129.63 525.07 122.13 527.59 114.72 527.81 C 106.91 527.80 98.80 525.43 93.16 519.82 C 84.91 512.20 82.58 499.48 86.50 489.12 C 87.85 485.61 89.91 482.36 92.54 479.67 M 106.36 479.59 C 95.04 483.24 89.47 497.36 94.37 508.00 C 99.27 520.86 117.57 524.64 127.81 515.92 C 137.30 508.52 138.00 492.87 129.47 484.46 C 123.57 478.47 114.18 476.85 106.36 479.59 Z" />
<path fill="#040404" opacity="1.00" d=" M 102.22 546.39 C 105.66 546.43 109.54 545.65 112.61 547.61 C 115.61 550.22 114.55 555.19 111.05 556.82 C 112.38 558.51 113.60 560.29 114.58 562.22 C 111.73 562.11 110.93 559.07 109.43 557.22 C 107.57 557.20 105.70 557.22 103.84 557.26 C 103.86 558.82 103.87 560.39 103.86 561.97 C 103.44 561.94 102.60 561.88 102.17 561.85 C 102.25 556.70 102.12 551.54 102.22 546.39 M 103.84 547.76 C 103.85 550.37 103.90 552.98 103.90 555.61 C 106.00 555.58 108.10 555.62 110.18 555.25 C 112.34 554.56 113.28 551.90 112.26 549.93 C 110.46 547.06 106.66 548.06 103.84 547.76 Z" />
<path fill="#040404" opacity="1.00" d=" M 239.75 549.28 C 243.07 545.56 249.63 545.01 252.98 548.96 C 255.06 551.18 254.93 554.43 254.46 557.23 C 253.02 559.52 250.80 561.09 248.56 562.53 C 250.95 563.85 253.42 563.29 255.84 562.39 C 254.74 564.57 251.83 566.14 249.65 564.45 C 246.87 562.74 243.70 561.74 240.99 559.93 C 237.77 557.29 238.04 552.70 239.75 549.28 M 243.50 548.64 C 238.90 550.77 239.30 558.30 244.07 559.98 C 248.06 561.92 253.48 558.65 252.91 554.07 C 253.38 549.29 247.38 546.28 243.50 548.64 Z" />
<path fill="#040404" opacity="1.00" d=" M 264.22 546.61 C 264.59 546.52 265.34 546.35 265.71 546.26 C 265.84 549.84 265.48 553.45 266.00 557.01 C 266.31 561.42 273.84 561.69 274.78 557.56 C 275.62 553.63 274.90 549.56 275.41 545.59 C 276.36 546.45 277.01 547.54 276.81 548.88 C 276.75 552.95 277.67 557.58 274.85 561.00 C 271.65 562.62 266.73 562.78 264.84 559.16 C 263.40 555.15 263.95 550.76 264.22 546.61 Z" />
<path fill="#040404" opacity="1.00" d=" M 309.38 545.72 C 309.71 546.06 310.37 546.74 310.70 547.08 C 311.12 551.52 310.74 555.99 310.89 560.45 C 314.19 560.39 317.51 560.40 320.78 560.96 C 317.16 562.57 313.14 562.00 309.31 562.09 C 309.15 558.56 309.11 555.03 309.05 551.50 C 309.13 549.57 309.21 547.64 309.38 545.72 Z" />
<path fill="#040404" opacity="1.00" d=" M 338.22 546.05 C 342.68 546.71 347.28 545.80 351.68 546.98 C 350.58 547.35 349.47 547.67 348.34 547.96 C 347.54 547.91 345.94 547.82 345.14 547.78 C 344.59 552.83 346.36 558.40 343.83 563.05 C 342.89 558.04 343.43 552.91 343.34 547.84 C 341.66 547.85 339.98 547.89 338.31 547.94 C 338.29 547.47 338.24 546.52 338.22 546.05 Z" />
</g>
<g id="#fdfefeff">
</g>
<g id="#fbfbfbff">
</g>
<g id="#030403ff">
<path fill="#030403" opacity="1.00" d=" M 176.61 471.76 C 189.66 471.61 202.72 472.07 215.76 471.55 C 215.78 473.95 215.79 476.35 215.79 478.76 C 205.40 478.82 195.02 478.74 184.63 478.80 C 184.66 485.26 184.63 491.72 184.65 498.19 C 193.89 497.55 203.17 497.98 212.42 497.88 C 212.41 500.19 212.41 502.51 212.42 504.83 C 203.15 504.71 193.88 504.84 184.61 504.75 C 184.69 512.22 184.62 519.69 184.60 527.17 C 181.92 527.17 179.25 527.16 176.57 527.16 C 176.62 508.69 176.58 490.22 176.61 471.76 Z" />
</g>
<g id="#020202ff">
<path fill="#020202" opacity="1.00" d=" M 248.18 471.72 C 261.12 471.58 274.13 472.21 287.04 471.41 C 287.13 473.85 287.16 476.30 287.19 478.75 C 276.83 478.79 266.47 478.74 256.12 478.81 C 256.14 485.16 256.12 491.51 256.14 497.86 C 265.31 497.85 274.47 497.87 283.64 497.87 C 283.65 500.17 283.67 502.48 283.69 504.80 C 274.51 504.74 265.34 504.83 256.17 504.74 C 255.99 512.22 256.43 519.71 255.88 527.18 C 253.29 527.18 250.70 527.17 248.11 527.18 C 247.85 516.47 248.18 505.76 248.08 495.05 C 248.21 487.27 247.62 479.49 248.18 471.72 Z" />
<path fill="#020202" opacity="1.00" d=" M 80.51 546.35 C 83.61 546.48 86.90 545.88 89.87 547.03 C 93.03 548.45 93.53 552.78 91.52 555.34 C 89.03 557.63 85.40 557.12 82.31 557.15 C 82.01 559.00 83.08 561.91 80.48 562.37 C 80.45 557.03 80.47 551.68 80.51 546.35 M 82.21 547.83 C 82.23 550.41 82.21 552.98 82.25 555.57 C 84.92 555.16 88.37 556.22 90.38 553.90 C 91.40 552.24 91.24 550.29 89.89 548.88 C 87.56 547.55 84.77 547.93 82.21 547.83 Z" />
<path fill="#020202" opacity="1.00" d=" M 171.35 546.29 C 171.82 546.35 172.75 546.46 173.22 546.51 C 173.15 551.57 173.15 556.62 173.24 561.68 C 172.76 561.75 171.82 561.89 171.35 561.97 C 171.36 557.56 171.37 553.15 171.36 548.75 C 171.36 548.13 171.36 546.91 171.35 546.29 Z" />
<path fill="#020202" opacity="1.00" d=" M 207.50 545.62 C 210.87 549.11 212.74 553.67 215.18 557.79 C 217.41 554.07 219.57 550.32 221.75 546.58 C 222.16 546.48 222.97 546.29 223.37 546.20 C 223.39 551.59 223.40 556.98 223.38 562.37 C 222.79 562.15 222.20 561.96 221.65 561.67 C 221.43 557.62 221.70 553.55 221.69 549.50 C 219.69 553.27 217.54 556.97 215.13 560.51 C 212.96 556.97 210.88 553.37 208.82 549.76 C 208.79 553.80 208.91 557.84 208.70 561.87 C 208.35 562.03 207.65 562.34 207.29 562.50 C 207.12 556.87 206.99 551.23 207.50 545.62 Z" />
<path fill="#020202" opacity="1.00" d=" M 291.25 548.10 C 291.61 546.92 292.73 546.42 293.84 546.20 C 296.02 551.33 298.27 556.44 300.76 561.43 C 300.37 561.70 299.59 562.23 299.20 562.49 C 298.52 560.89 297.85 559.31 297.16 557.73 C 294.31 557.82 291.45 557.84 288.60 557.85 C 288.08 559.10 287.56 560.34 287.06 561.61 C 286.49 561.76 285.36 562.07 284.79 562.23 C 287.06 557.57 288.97 552.75 291.25 548.10 M 289.24 556.40 C 291.67 556.38 294.11 556.38 296.56 556.33 C 295.31 553.67 294.10 551.01 292.91 548.34 C 291.66 551.01 290.49 553.72 289.24 556.40 Z" />
<path fill="#020202" opacity="1.00" d=" M 327.85 546.35 C 328.31 546.36 329.22 546.37 329.68 546.38 C 329.67 551.68 329.70 556.99 329.68 562.29 C 329.03 562.03 328.39 561.77 327.76 561.51 C 327.90 556.46 327.84 551.40 327.85 546.35 Z" />
</g>
<g id="#f2f2f2ff">
</g>
<g id="#f1f1f1ff">
</g>
<g id="#f7f7f7ff">
</g>
<g id="#f0f0f0ff">
</g>
</svg>
