<?xml version="1.0" encoding="UTF-8" ?>
<!DOCTYPE svg PUBLIC "-//W3C//DTD SVG 1.1//EN" "http://www.w3.org/Graphics/SVG/1.1/DTD/svg11.dtd">
<svg width="328pt" height="295pt" viewBox="0 0 328 295" version="1.1" xmlns="http://www.w3.org/2000/svg">
<g id="#ffffffff">
</g>
<g id="#000000ff">
<path fill="#000000" opacity="1.00" d=" M 13.83 31.04 C 15.56 26.04 20.54 21.99 25.98 22.18 C 40.02 22.19 54.07 22.23 68.12 22.14 C 73.74 22.18 78.61 26.34 80.21 31.61 C 94.16 78.27 108.04 124.98 122.07 171.61 C 161.68 171.30 201.30 171.24 240.92 171.18 C 243.86 171.63 243.85 168.10 244.29 166.15 C 251.55 140.83 258.58 115.42 265.93 90.13 C 263.68 89.43 261.31 89.69 259.00 89.66 C 226.65 89.65 194.30 89.67 161.95 89.65 C 158.30 89.86 154.98 88.06 152.25 85.81 C 150.05 83.02 148.29 79.65 148.49 76.00 C 148.45 70.36 152.36 64.86 157.84 63.33 C 160.46 62.47 163.24 62.61 165.96 62.59 C 205.31 62.65 244.66 62.56 284.01 62.63 C 288.51 62.43 292.47 65.07 295.23 68.41 C 296.84 71.68 298.12 75.43 297.08 79.07 C 288.34 110.48 279.25 141.78 270.50 173.19 C 269.46 182.91 263.55 192.47 254.14 195.98 C 249.72 197.98 244.78 197.96 240.02 198.14 C 200.33 198.11 160.64 198.15 120.96 198.12 C 113.57 198.05 106.49 194.76 101.24 189.67 C 97.30 185.04 94.90 179.18 94.26 173.14 C 83.79 138.54 73.59 103.85 63.17 69.23 C 60.65 62.62 59.84 55.34 56.62 49.02 C 46.27 48.87 35.92 48.79 25.56 48.87 C 21.26 48.90 17.49 46.20 15.08 42.81 C 13.02 39.29 12.77 34.92 13.83 31.04 Z" />
<path fill="#000000" opacity="1.00" d=" M 102.07 225.69 C 107.12 224.98 112.47 224.84 117.27 226.82 C 126.60 230.15 133.96 239.00 134.69 249.00 C 136.03 258.33 131.85 267.85 124.69 273.81 C 119.17 277.35 112.68 279.76 106.04 279.22 C 98.21 278.49 90.34 274.72 85.93 268.02 C 79.59 259.64 79.33 247.52 84.42 238.49 C 88.42 232.21 94.68 227.20 102.07 225.69 Z" />
<path fill="#000000" opacity="1.00" d=" M 242.15 229.35 C 250.04 224.32 260.67 223.78 269.02 228.02 C 278.32 232.44 284.40 242.76 283.78 253.04 C 284.02 267.85 269.65 280.68 254.98 279.22 C 245.02 278.66 235.67 272.09 231.83 262.88 C 228.49 254.98 229.45 245.93 233.14 238.34 C 235.94 235.13 238.35 231.50 242.15 229.35 Z" />
</g>
</svg>
